<svg width="100" height="50" viewBox="0 0 100 50" fill="none" xmlns="http://www.w3.org/2000/svg">
<path d="M7.06402 29.3872V26.8756H5.67683C4.7378 26.8756 4.41768 26.535 4.41768 25.7475V20.0431H7.06402V17.5953H4.41768V13.6364L1.40854 13.6364V17.5953H0V20.0431H1.40854V25.7262C1.40854 28.4294 2.92378 29.3872 5.18598 29.3872H7.06402Z" fill="white"/>
<path fill-rule="evenodd" clip-rule="evenodd" d="M35.9821 23.4487C35.9821 27.131 33.6132 29.5787 30.5827 29.5787C28.726 29.5787 27.4029 28.7273 26.6773 27.7057V29.3872H23.6895V13.6364H26.6773V19.3194C27.4029 18.2339 28.7901 17.4038 30.5827 17.4038C33.6132 17.4038 35.9821 19.7664 35.9821 23.4487ZM26.6777 23.4912C26.6777 25.7261 28.193 26.9607 29.7936 26.9607C31.4155 26.9607 32.9308 25.6836 32.9308 23.4487C32.9308 21.2137 31.4155 20.0218 29.7936 20.0218C28.193 20.0218 26.6777 21.2563 26.6777 23.4912Z" fill="white"/>
<path fill-rule="evenodd" clip-rule="evenodd" d="M46.6955 27.6631C45.9912 28.6848 44.6467 29.5788 42.7687 29.5788C39.7809 29.5788 37.3906 27.131 37.3906 23.4487C37.3906 19.7664 39.7809 17.4038 42.79 17.4038C44.6894 17.4038 45.9912 18.2978 46.6955 19.2769V17.5954H49.7046V29.3872H46.6955V27.6631ZM40.4425 23.4487C40.4425 25.6836 41.9577 26.9607 43.5583 26.9607C45.2016 26.9607 46.6955 25.7262 46.6955 23.4913C46.6955 21.2564 45.2016 20.0219 43.5583 20.0219C41.9577 20.0219 40.4425 21.2138 40.4425 23.4487Z" fill="white"/>
<path fill-rule="evenodd" clip-rule="evenodd" d="M17.841 27.6631C17.1367 28.6848 15.7922 29.5788 13.9142 29.5788C10.9264 29.5788 8.53613 27.131 8.53613 23.4487C8.53613 19.7664 10.9264 17.4038 13.9355 17.4038C15.8349 17.4038 17.1367 18.2978 17.841 19.2769V17.5954H20.8502V29.3872H17.841V27.6631ZM11.588 23.4487C11.588 25.6836 13.1032 26.9607 14.7038 26.9607C16.3471 26.9607 17.841 25.7262 17.841 23.4913C17.841 21.2564 16.3471 20.0219 14.7038 20.0219C13.1032 20.0219 11.588 21.2138 11.588 23.4487Z" fill="white"/>
<path d="M94.6284 17.3553L87.7584 33.471H84.4804L86.3473 29.2507L81.4053 17.3553H84.9003L88.0836 25.8804L91.3115 17.3553H94.6284Z" fill="#00D7B0"/>
<path fill-rule="evenodd" clip-rule="evenodd" d="M76.3095 27.8015C75.6005 28.8418 74.2469 29.752 72.3563 29.752C69.3484 29.752 66.9421 27.2597 66.9421 23.5103C66.9421 19.761 69.3484 17.3553 72.3778 17.3553C74.2899 17.3553 75.6005 18.2656 76.3095 19.2625V17.5504H79.3388V29.557H76.3095V27.8015ZM70.0145 23.5103C70.0145 25.786 71.5399 27.0863 73.1512 27.0863C74.8056 27.0863 76.3095 25.8293 76.3095 23.5537C76.3095 21.2781 74.8056 20.0211 73.1512 20.0211C71.5399 20.0211 70.0145 21.2347 70.0145 23.5103Z" fill="#00D7B0"/>
<path fill-rule="evenodd" clip-rule="evenodd" d="M64.8761 23.5521C64.8761 19.8297 62.4871 17.3554 59.431 17.3554C57.5586 17.3554 56.2242 18.216 55.4925 19.2488V17.559H52.4794V33.4711H55.4925V27.7262C56.2242 28.8236 57.6231 29.6627 59.431 29.6627C62.4871 29.6627 64.8761 27.2744 64.8761 23.5521ZM55.4921 23.509C55.4921 21.2498 57.0201 20.0019 58.6343 20.0019C60.27 20.0019 61.798 21.2928 61.798 23.5521C61.798 25.8113 60.27 27.0162 58.6343 27.0162C57.0201 27.0162 55.4921 25.7682 55.4921 23.509Z" fill="#00D7B0"/>
<path d="M73.1009 0.206604C81.6904 0.206604 89.6658 3.76301 94.6281 10.5754C95.0984 11.221 94.8856 12.6822 94.2399 13.1525C93.5943 13.6228 92.0846 13.5977 91.6143 12.9521C87.1908 6.87931 80.7557 3.09917 73.1009 3.09917C65.4906 3.09917 58.4867 6.71937 54.057 12.7331C53.5833 13.3762 52.6779 13.5135 52.0348 13.0398C51.3917 12.5661 51.2543 11.6607 51.7281 11.0176C56.6972 4.27146 64.5614 0.206604 73.1009 0.206604Z" fill="url(#paint0_linear_1149_14344)"/>
<path d="M74.8805 49.8387C66.291 49.8387 58.3155 46.2823 53.3532 39.4699C52.883 38.8243 53.0957 37.3631 53.7414 36.8928C54.387 36.4225 55.8968 36.4476 56.367 37.0932C60.7905 43.166 67.2256 46.9461 74.8805 46.9461C82.4907 46.9461 89.4946 43.3259 93.9243 37.3122C94.398 36.6691 95.3034 36.5318 95.9465 37.0055C96.5896 37.4792 96.727 38.3846 96.2533 39.0277C91.2841 45.7738 83.4199 49.8387 74.8805 49.8387Z" fill="url(#paint1_linear_1149_14344)"/>
<defs>
<linearGradient id="paint0_linear_1149_14344" x1="51.4462" y1="3.52371" x2="73.1642" y2="3.52371" gradientUnits="userSpaceOnUse">
<stop stop-color="#05D7B0" stop-opacity="0"/>
<stop offset="1" stop-color="#05D7B0"/>
</linearGradient>
<linearGradient id="paint1_linear_1149_14344" x1="96.5352" y1="46.5216" x2="74.8171" y2="46.5216" gradientUnits="userSpaceOnUse">
<stop stop-color="#05D7B0" stop-opacity="0"/>
<stop offset="1" stop-color="#05D7B0"/>
</linearGradient>
</defs>
</svg>
